<?xml version="1.0" standalone="no"?>
<!DOCTYPE svg PUBLIC "-//W3C//DTD SVG 20010904//EN"
 "http://www.w3.org/TR/2001/REC-SVG-20010904/DTD/svg10.dtd">
<svg version="1.0" xmlns="http://www.w3.org/2000/svg"
 width="324.000000pt" height="324.000000pt" viewBox="0 0 324.000000 324.000000"
 preserveAspectRatio="xMidYMid meet">
<metadata>
Created by potrace 1.14, written by Peter Selinger 2001-2017
</metadata>
<g transform="translate(0.000000,324.000000) scale(0.100000,-0.100000)"
fill="#000000" stroke="none">
<path d="M1614 3088 c-4 -5 -15 -8 -25 -5 -11 3 -19 2 -19 -2 0 -8 -54 -36
-56 -29 -1 1 -10 -4 -20 -13 -26 -22 -371 -227 -599 -355 -66 -37 -122 -70
-125 -73 -3 -3 -23 -15 -45 -27 -22 -11 -96 -53 -164 -92 -69 -40 -128 -72
-133 -72 -4 0 -8 -4 -8 -8 0 -5 -11 -14 -24 -20 -13 -6 -34 -32 -47 -59 l-24
-48 0 -672 c-1 -718 0 -729 48 -784 13 -14 55 -45 93 -68 38 -23 76 -45 84
-50 84 -51 172 -101 180 -101 4 0 10 -3 12 -7 2 -5 19 -16 38 -26 77 -39 95
-50 98 -59 2 -4 10 -8 17 -8 8 0 20 -6 27 -13 7 -7 15 -14 18 -14 18 -3 60
-28 60 -35 0 -5 4 -7 9 -4 5 3 14 -1 21 -9 7 -8 19 -15 26 -15 8 0 14 -4 14
-9 0 -5 8 -11 18 -14 9 -3 40 -19 67 -35 192 -112 375 -216 405 -229 45 -20
95 -24 134 -10 26 9 138 70 196 107 8 5 44 26 80 46 187 106 518 300 543 316
15 11 27 17 27 13 0 -3 19 7 43 23 42 29 117 73 172 100 17 9 32 18 35 21 3 3
19 13 35 21 56 28 92 63 113 110 14 31 16 120 17 715 1 374 -1 685 -4 690 -3
6 -7 18 -8 29 -5 32 -42 73 -92 105 -27 16 -52 27 -55 24 -3 -4 -6 -1 -6 6 0
6 -10 16 -22 21 -13 6 -39 20 -58 31 -37 22 -346 201 -383 222 -12 7 -24 14
-27 17 -5 5 -23 15 -103 59 -58 32 -224 126 -247 141 -70 43 -201 119 -225
129 -44 20 -104 30 -111 19z m-230 -1003 c39 -36 186 -155 192 -155 3 0 16
-11 30 -25 32 -32 53 -28 104 18 23 20 45 37 50 37 5 0 10 4 12 9 4 12 131
116 141 116 5 0 14 7 20 16 26 34 42 28 102 -39 33 -36 90 -96 127 -134 37
-37 66 -68 64 -68 -2 0 28 -33 68 -74 40 -41 94 -100 122 -131 l50 -57 -66
-67 c-36 -37 -69 -67 -75 -66 -5 0 -9 -6 -8 -12 2 -7 -4 -13 -13 -13 -8 0 -12
-4 -9 -10 3 -5 2 -10 -4 -10 -5 0 -58 -47 -118 -104 -203 -195 -247 -236 -253
-236 -7 0 -37 25 -165 134 -44 38 -87 75 -96 83 -13 11 -21 7 -57 -25 -23 -20
-51 -44 -61 -52 -11 -9 -35 -29 -53 -46 -64 -57 -113 -91 -126 -87 -7 3 -48
39 -91 81 -121 118 -351 340 -398 385 -24 22 -43 43 -43 47 0 4 14 21 30 39
17 17 29 31 27 31 -2 0 38 43 89 95 52 52 91 95 89 95 -5 0 93 104 198 211 63
64 67 64 121 14z"/>
<path d="M1283 1903 c-17 -21 -47 -54 -66 -73 -20 -19 -33 -38 -30 -44 3 -5 2
-6 -4 -3 -5 3 -23 -11 -40 -31 -17 -20 -48 -55 -69 -77 -75 -78 -80 -61 55
-195 67 -66 126 -120 131 -120 6 0 9 -3 8 -7 -3 -10 50 -63 63 -63 6 0 7 -5 4
-10 -3 -5 -1 -11 4 -11 6 -1 17 -2 24 -3 14 -1 147 135 147 151 0 5 -45 47
-100 92 -55 46 -100 86 -100 91 0 5 18 21 40 38 22 16 37 32 33 35 -3 4 0 7 8
7 14 0 54 29 101 74 21 19 20 19 -34 70 -99 93 -126 116 -135 116 -5 0 -23
-17 -40 -37z"/>
<path d="M1950 1930 c0 -6 -4 -10 -9 -10 -5 0 -40 -29 -78 -65 -67 -65 -85
-101 -56 -112 8 -3 25 -15 37 -27 13 -12 46 -37 74 -56 57 -39 74 -68 48 -82
-14 -8 -140 -113 -174 -145 -17 -17 -10 -29 66 -108 50 -52 67 -63 80 -56 9 5
88 78 175 163 157 153 167 167 144 206 -5 7 -13 9 -19 6 -6 -4 -8 -3 -5 3 3 5
-36 54 -88 109 -52 54 -95 102 -95 107 0 4 -7 7 -17 7 -9 0 -14 3 -10 6 7 8
-32 49 -55 57 -10 4 -18 2 -18 -3z"/>
<path d="M1618 1618 c-17 -21 -17 -23 4 -45 l22 -24 25 25 25 25 -24 21 c-29
25 -31 25 -52 -2z"/>
</g>
</svg>
